<?xml version="1.0" standalone="no"?><!DOCTYPE svg PUBLIC "-//W3C//DTD SVG 1.1//EN" "http://www.w3.org/Graphics/SVG/1.1/DTD/svg11.dtd"><svg t="1603380194712" class="icon" viewBox="0 0 1024 1024" version="1.1" xmlns="http://www.w3.org/2000/svg" p-id="3204" xmlns:xlink="http://www.w3.org/1999/xlink" width="200" height="200"><defs><style type="text/css"></style></defs><path d="M512 672c-176.4 0-320-143.5-320-320S335.6 32 512 32s320 143.5 320 320-143.6 320-320 320z m0-576c-141.2 0-256 114.8-256 256s114.8 256 256 256 256-114.8 256-256S653.2 96 512 96z" p-id="3205"></path><path d="M850.1 992H173.9c-20.3 0-38.9-9.3-51.2-25.5-12.2-16.1-16.1-36.5-10.6-55.9C162.5 732.4 327 608 512 608s349.5 124.4 399.9 302.5c5.5 19.4 1.6 39.8-10.6 56-12.3 16.2-31 25.5-51.2 25.5zM512 672c-156.5 0-295.7 105.3-338.3 256h676.4C807.7 777.3 668.5 672 512 672zM512 544c-60.9 0-116.9-28-153.6-76.8-10.6-14.1-7.8-34.2 6.4-44.8s34.2-7.8 44.8 6.4C434 461.3 471.4 480 512 480s78-18.7 102.4-51.2c10.6-14.1 30.7-16.9 44.8-6.4 14.1 10.6 17 30.7 6.4 44.8C628.9 516 573 544 512 544z" p-id="3206"></path></svg>