<?xml version="1.0" standalone="no"?><!DOCTYPE svg PUBLIC "-//W3C//DTD SVG 1.1//EN" "http://www.w3.org/Graphics/SVG/1.1/DTD/svg11.dtd"><svg t="1603381419533" class="icon" viewBox="0 0 1024 1024" version="1.1" xmlns="http://www.w3.org/2000/svg" p-id="11050" xmlns:xlink="http://www.w3.org/1999/xlink" width="200" height="200"><defs><style type="text/css"></style></defs><path d="M488.680727 124.090182a104.727273 104.727273 0 0 1 93.184 0l279.272728 139.636363A104.727273 104.727273 0 0 1 919.272727 357.469091v332.706909a104.727273 104.727273 0 0 1-58.042182 93.696l-279.272727 139.636364a104.727273 104.727273 0 0 1-93.696 0L208.896 783.825455a104.634182 104.634182 0 0 1-57.623273-94.021819V357.469091a104.727273 104.727273 0 0 1 58.042182-93.696L342.574545 197.073455a35.048727 35.048727 0 0 1 5.352728-2.653091z m-267.636363 246.597818v319.348364a34.909091 34.909091 0 0 0 19.130181 31.371636l260.189091 130.094545v-341.178181l-279.272727-139.636364z m628.363636 0l-279.272727 139.636364v340.992l259.956363-129.954909a34.909091 34.909091 0 0 0 19.037091-26.298182l0.325818-4.887273V370.688zM360.913455 266.053818L264.378182 314.274909 535.272727 449.629091l96.442182-48.221091-270.894545-135.447273z m189.905454-79.453091a34.909091 34.909091 0 0 0-30.952727 0l-80.849455 40.401455 270.848 135.400727 96.302546-48.128z" fill="#2e343a" p-id="11051"></path></svg>